<svg width="200" height="200" viewBox="0 0 200 200" fill="none" xmlns="http://www.w3.org/2000/svg">
<rect width="200" height="200" fill="#B0B0B0"/>
<path d="M93.6199 94.5312C95.13 94.5312 96.3542 93.307 96.3542 91.7969C96.3542 90.2867 95.13 89.0625 93.6199 89.0625C92.1097 89.0625 90.8855 90.2867 90.8855 91.7969C90.8855 93.307 92.1097 94.5312 93.6199 94.5312Z" fill="white"/>
<path d="M114.583 82.5H85.4168C84.6436 82.5009 83.9022 82.8085 83.3554 83.3552C82.8086 83.902 82.5011 84.6434 82.5002 85.4167V108.745L82.5 108.751L82.5002 114.583C82.5011 115.357 82.8086 116.098 83.3554 116.645C83.9022 117.192 84.6436 117.499 85.4168 117.5H114.583C115.357 117.499 116.098 117.192 116.645 116.645C117.192 116.098 117.499 115.357 117.5 114.583V85.4167C117.499 84.6434 117.192 83.902 116.645 83.3552C116.098 82.8085 115.357 82.5009 114.583 82.5ZM109.354 97.0833C108.807 96.5372 108.065 96.2304 107.292 96.2304C106.518 96.2304 105.777 96.5372 105.229 97.0833L97.0834 105.229L93.3125 101.458C92.765 100.912 92.0233 100.606 91.2501 100.606C90.4768 100.606 89.7351 100.912 89.1876 101.458L85.4168 105.229V85.4167H114.583L114.584 102.314L109.354 97.0833Z" fill="white"/>
</svg>
