<svg width="200" height="43" viewBox="0 0 200 43" fill="none" xmlns="http://www.w3.org/2000/svg">
<path d="M52.9627 41H49.9238V40.1959L50.7373 39.8218V35.5019L49.9238 35.1278V34.3237H52.9627V35.1278L52.1492 35.5019V39.8218L52.9627 40.1959V41ZM60.0193 41H58.224L55.316 35.9507H55.2786C55.2911 36.2686 55.3035 36.5865 55.316 36.9044C55.3347 37.2224 55.3503 37.5403 55.3628 37.8582V41H54.1004V34.3237H55.8864L58.7851 39.3262H58.8131C58.8069 39.0146 58.7975 38.706 58.7851 38.4005C58.7726 38.0951 58.7601 37.7896 58.7477 37.4842V34.3237H60.0193V41ZM67.6258 41H65.8305L62.9225 35.9507H62.8851C62.8975 36.2686 62.91 36.5865 62.9225 36.9044C62.9412 37.2224 62.9568 37.5403 62.9692 37.8582V41H61.7069V34.3237H63.4929L66.3915 39.3262H66.4196C66.4134 39.0146 66.404 38.706 66.3915 38.4005C66.3791 38.0951 66.3666 37.7896 66.3541 37.4842V34.3237H67.6258V41ZM75.3726 37.6525C75.3726 38.3444 75.2572 38.9491 75.0266 39.4665C74.8022 39.9777 74.4562 40.3766 73.9887 40.6634C73.5211 40.9501 72.9227 41.0935 72.1934 41.0935C71.4702 41.0935 70.8718 40.9501 70.398 40.6634C69.9305 40.3766 69.5814 39.9746 69.3508 39.4572C69.1264 38.9398 69.0142 38.3351 69.0142 37.6431C69.0142 36.9512 69.1264 36.3496 69.3508 35.8385C69.5814 35.3273 69.9305 34.9315 70.398 34.651C70.8718 34.3642 71.4734 34.2208 72.2027 34.2208C72.9258 34.2208 73.5211 34.3642 73.9887 34.651C74.4562 34.9315 74.8022 35.3304 75.0266 35.8478C75.2572 36.359 75.3726 36.9606 75.3726 37.6525ZM70.5009 37.6525C70.5009 38.3507 70.6349 38.9024 70.903 39.3075C71.171 39.7065 71.6012 39.906 72.1934 39.906C72.798 39.906 73.2313 39.7065 73.4931 39.3075C73.7549 38.9024 73.8858 38.3507 73.8858 37.6525C73.8858 36.9481 73.7549 36.3964 73.4931 35.9974C73.2313 35.5985 72.8011 35.399 72.2027 35.399C71.6043 35.399 71.171 35.5985 70.903 35.9974C70.6349 36.3964 70.5009 36.9481 70.5009 37.6525ZM81.9005 34.3237L79.6283 41H78.0855L75.8226 34.3237H77.2533L78.5062 38.2977C78.5312 38.3663 78.5655 38.494 78.6091 38.6811C78.659 38.8618 78.7088 39.0551 78.7587 39.2608C78.8086 39.4603 78.8429 39.6286 78.8616 39.7657C78.8803 39.6286 78.9114 39.4603 78.9551 39.2608C79.0049 39.0551 79.0548 38.8618 79.1047 38.6811C79.1545 38.494 79.1888 38.3663 79.2075 38.2977L80.4699 34.3237H81.9005ZM86.4575 41L85.9713 39.4104H83.5401L83.0539 41H81.5298L83.8861 34.2956H85.616L87.9817 41H86.4575ZM85.1484 36.6707C85.1173 36.5647 85.0767 36.4307 85.0269 36.2686C84.977 36.1065 84.9271 35.9413 84.8773 35.773C84.8274 35.6047 84.7869 35.4582 84.7557 35.3336C84.7245 35.4582 84.6809 35.6141 84.6248 35.8011C84.5749 35.9819 84.5251 36.1564 84.4752 36.3247C84.4316 36.4868 84.3973 36.6021 84.3723 36.6707L83.8955 38.2229H85.6347L85.1484 36.6707ZM90.7412 41H89.3292V35.5019H87.5152V34.3237H92.5552V35.5019H90.7412V41ZM96.0813 41H93.0424V40.1959L93.8559 39.8218V35.5019L93.0424 35.1278V34.3237H96.0813V35.1278L95.2678 35.5019V39.8218L96.0813 40.1959V41ZM102.455 34.3237L100.183 41H98.6403L96.3774 34.3237H97.8081L99.0611 38.2977C99.086 38.3663 99.1203 38.494 99.1639 38.6811C99.2138 38.8618 99.2637 39.0551 99.3135 39.2608C99.3634 39.4603 99.3977 39.6286 99.4164 39.7657C99.4351 39.6286 99.4663 39.4603 99.5099 39.2608C99.5598 39.0551 99.6096 38.8618 99.6595 38.6811C99.7094 38.494 99.7437 38.3663 99.7624 38.2977L101.025 34.3237H102.455ZM107.144 41H103.301V34.3237H107.144V35.4832H104.712V36.9512H106.975V38.1107H104.712V39.8312H107.144V41Z" fill="#FF9900"/>
<path d="M116.032 41L114.424 35.7637H114.386C114.393 35.8884 114.402 36.0754 114.414 36.3247C114.427 36.5741 114.439 36.8421 114.452 37.1289C114.464 37.4094 114.47 37.665 114.47 37.8956V41H113.208V34.3237H115.134L116.715 39.4291H116.743L118.416 34.3237H120.343V41H119.024V37.8395C119.024 37.6276 119.027 37.3844 119.034 37.1102C119.046 36.8359 119.055 36.5772 119.062 36.3341C119.074 36.0847 119.083 35.8977 119.09 35.773H119.052L117.332 41H116.032ZM126.115 41L125.629 39.4104H123.198L122.712 41H121.188L123.544 34.2956H125.274L127.639 41H126.115ZM124.806 36.6707C124.775 36.5647 124.735 36.4307 124.685 36.2686C124.635 36.1065 124.585 35.9413 124.535 35.773C124.485 35.6047 124.445 35.4582 124.413 35.3336C124.382 35.4582 124.339 35.6141 124.283 35.8011C124.233 35.9819 124.183 36.1564 124.133 36.3247C124.089 36.4868 124.055 36.6021 124.03 36.6707L123.553 38.2229H125.292L124.806 36.6707ZM130.836 37.2504H133.483V40.7101C133.133 40.8286 132.769 40.9221 132.389 40.9906C132.015 41.0592 131.588 41.0935 131.108 41.0935C130.11 41.0935 129.343 40.8005 128.807 40.2146C128.271 39.6286 128.003 38.7746 128.003 37.6525C128.003 36.9543 128.137 36.3496 128.405 35.8385C128.679 35.3273 129.075 34.9315 129.593 34.651C130.11 34.3704 130.743 34.2302 131.491 34.2302C131.846 34.2302 132.195 34.2676 132.538 34.3424C132.881 34.4172 133.193 34.5169 133.473 34.6416L133.006 35.773C132.8 35.6671 132.566 35.5798 132.304 35.5112C132.043 35.4426 131.768 35.4084 131.482 35.4084C131.07 35.4084 130.712 35.5019 130.406 35.6889C130.107 35.8759 129.873 36.1408 129.705 36.4837C129.543 36.8203 129.462 37.2193 129.462 37.6805C129.462 38.1169 129.521 38.5034 129.639 38.84C129.758 39.1766 129.945 39.4416 130.201 39.6348C130.456 39.8218 130.79 39.9153 131.201 39.9153C131.401 39.9153 131.569 39.906 131.706 39.8873C131.849 39.8686 131.98 39.8468 132.099 39.8218V38.4286H130.836V37.2504ZM137.565 41H134.526V40.1959L135.34 39.8218V35.5019L134.526 35.1278V34.3237H137.565V35.1278L136.752 35.5019V39.8218L137.565 40.1959V41ZM141.536 35.4084C140.994 35.4084 140.579 35.611 140.293 36.0161C140.006 36.4213 139.863 36.9761 139.863 37.6805C139.863 38.3912 139.993 38.9429 140.255 39.3356C140.523 39.7221 140.95 39.9153 141.536 39.9153C141.811 39.9153 142.082 39.8842 142.35 39.8218C142.624 39.7595 142.92 39.6722 143.238 39.56V40.7475C142.945 40.866 142.655 40.9532 142.368 41.0094C142.082 41.0655 141.761 41.0935 141.405 41.0935C140.72 41.0935 140.152 40.9532 139.704 40.6727C139.261 40.386 138.934 39.987 138.722 39.4759C138.51 38.9585 138.404 38.3569 138.404 37.6712C138.404 36.998 138.525 36.4026 138.769 35.8852C139.012 35.3678 139.364 34.9626 139.825 34.6697C140.293 34.3767 140.863 34.2302 141.536 34.2302C141.867 34.2302 142.197 34.2738 142.527 34.3611C142.864 34.4421 143.185 34.5543 143.491 34.6977L143.032 35.8478C142.783 35.7294 142.531 35.6265 142.275 35.5393C142.026 35.452 141.779 35.4084 141.536 35.4084ZM148.743 41L148.257 39.4104H145.826L145.339 41H143.815L146.172 34.2956H147.901L150.267 41H148.743ZM147.434 36.6707C147.403 36.5647 147.362 36.4307 147.312 36.2686C147.262 36.1065 147.213 35.9413 147.163 35.773C147.113 35.6047 147.072 35.4582 147.041 35.3336C147.01 35.4582 146.966 35.6141 146.91 35.8011C146.86 35.9819 146.81 36.1564 146.761 36.3247C146.717 36.4868 146.683 36.6021 146.658 36.6707L146.181 38.2229H147.92L147.434 36.6707ZM151.113 41V34.3237H152.525V39.8312H155.236V41H151.113ZM163.908 35.4084C163.366 35.4084 162.951 35.611 162.665 36.0161C162.378 36.4213 162.235 36.9761 162.235 37.6805C162.235 38.3912 162.365 38.9429 162.627 39.3356C162.895 39.7221 163.322 39.9153 163.908 39.9153C164.183 39.9153 164.454 39.8842 164.722 39.8218C164.996 39.7595 165.292 39.6722 165.61 39.56V40.7475C165.317 40.866 165.027 40.9532 164.74 41.0094C164.454 41.0655 164.133 41.0935 163.777 41.0935C163.092 41.0935 162.524 40.9532 162.076 40.6727C161.633 40.386 161.306 39.987 161.094 39.4759C160.882 38.9585 160.776 38.3569 160.776 37.6712C160.776 36.998 160.897 36.4026 161.14 35.8852C161.384 35.3678 161.736 34.9626 162.197 34.6697C162.665 34.3767 163.235 34.2302 163.908 34.2302C164.239 34.2302 164.569 34.2738 164.899 34.3611C165.236 34.4421 165.557 34.5543 165.863 34.6977L165.404 35.8478C165.155 35.7294 164.903 35.6265 164.647 35.5393C164.398 35.452 164.151 35.4084 163.908 35.4084ZM172.905 37.6525C172.905 38.3444 172.79 38.9491 172.559 39.4665C172.335 39.9777 171.989 40.3766 171.521 40.6634C171.054 40.9501 170.455 41.0935 169.726 41.0935C169.003 41.0935 168.405 40.9501 167.931 40.6634C167.463 40.3766 167.114 39.9746 166.883 39.4572C166.659 38.9398 166.547 38.3351 166.547 37.6431C166.547 36.9512 166.659 36.3496 166.883 35.8385C167.114 35.3273 167.463 34.9315 167.931 34.651C168.405 34.3642 169.006 34.2208 169.735 34.2208C170.459 34.2208 171.054 34.3642 171.521 34.651C171.989 34.9315 172.335 35.3304 172.559 35.8478C172.79 36.359 172.905 36.9606 172.905 37.6525ZM168.034 37.6525C168.034 38.3507 168.168 38.9024 168.436 39.3075C168.704 39.7065 169.134 39.906 169.726 39.906C170.331 39.906 170.764 39.7065 171.026 39.3075C171.288 38.9024 171.419 38.3507 171.419 37.6525C171.419 36.9481 171.288 36.3964 171.026 35.9974C170.764 35.5985 170.334 35.399 169.735 35.399C169.137 35.399 168.704 35.5985 168.436 35.9974C168.168 36.3964 168.034 36.9481 168.034 37.6525ZM179.824 37.5964C179.824 38.7247 179.503 39.5756 178.861 40.1491C178.225 40.7164 177.33 41 176.177 41H174.288V34.3237H176.383C177.081 34.3237 177.686 34.4484 178.197 34.6977C178.714 34.9471 179.113 35.3148 179.394 35.8011C179.68 36.2811 179.824 36.8795 179.824 37.5964ZM178.356 37.6338C178.356 36.892 178.194 36.3496 177.869 36.0068C177.545 35.6577 177.075 35.4832 176.458 35.4832H175.7V39.8312H176.308C177.673 39.8312 178.356 39.0987 178.356 37.6338ZM183.706 41H180.667V40.1959L181.481 39.8218V35.5019L180.667 35.1278V34.3237H183.706V35.1278L182.893 35.5019V39.8218L183.706 40.1959V41ZM190.763 41H188.968L186.06 35.9507H186.022C186.035 36.2686 186.047 36.5865 186.06 36.9044C186.078 37.2224 186.094 37.5403 186.106 37.8582V41H184.844V34.3237H186.63L189.529 39.3262H189.557C189.551 39.0146 189.541 38.706 189.529 38.4005C189.516 38.0951 189.504 37.7896 189.491 37.4842V34.3237H190.763V41ZM194.985 37.2504H197.631V40.7101C197.282 40.8286 196.917 40.9221 196.537 40.9906C196.163 41.0592 195.736 41.0935 195.256 41.0935C194.258 41.0935 193.492 40.8005 192.956 40.2146C192.419 39.6286 192.151 38.7746 192.151 37.6525C192.151 36.9543 192.285 36.3496 192.553 35.8385C192.828 35.3273 193.224 34.9315 193.741 34.651C194.258 34.3704 194.891 34.2302 195.639 34.2302C195.994 34.2302 196.344 34.2676 196.686 34.3424C197.029 34.4172 197.341 34.5169 197.621 34.6416L197.154 35.773C196.948 35.6671 196.714 35.5798 196.453 35.5112C196.191 35.4426 195.917 35.4084 195.63 35.4084C195.218 35.4084 194.86 35.5019 194.554 35.6889C194.255 35.8759 194.021 36.1408 193.853 36.4837C193.691 36.8203 193.61 37.2193 193.61 37.6805C193.61 38.1169 193.669 38.5034 193.788 38.84C193.906 39.1766 194.093 39.4416 194.349 39.6348C194.604 39.8218 194.938 39.9153 195.349 39.9153C195.549 39.9153 195.717 39.906 195.854 39.8873C195.998 39.8686 196.128 39.8468 196.247 39.8218V38.4286H194.985V37.2504Z" fill="white"/>
<path d="M2.94007 22.5517C2.94007 22.5401 2.93429 22.5286 2.92273 22.517C2.92273 22.5054 2.92273 22.4939 2.92273 22.4823C2.92273 22.2859 3.02674 22.1877 3.23475 22.1877C3.33876 22.1877 3.45432 22.2397 3.58143 22.3437C4.20547 22.933 4.89883 23.4011 5.66154 23.7477C6.42424 24.0944 7.25629 24.2678 8.15767 24.2678C8.40034 24.2678 8.67769 24.2446 8.98971 24.1984C9.30172 24.1406 9.59641 24.054 9.87375 23.9384C10.1511 23.8113 10.3822 23.6495 10.5671 23.4531C10.7636 23.2566 10.8618 23.0081 10.8618 22.7077C10.8618 22.3726 10.7809 22.0721 10.6191 21.8063C10.4573 21.5405 10.2435 21.3152 9.97776 21.1303C9.87375 21.0609 9.71774 20.9454 9.50973 20.7836C9.30172 20.6218 9.06482 20.4369 8.79903 20.2289C8.53324 20.0209 8.25589 19.8013 7.96699 19.5702C7.67809 19.3275 7.40074 19.1022 7.13495 18.8942C6.88071 18.6746 6.64959 18.4781 6.44158 18.3048C6.23357 18.1315 6.07756 17.9986 5.97356 17.9061C5.29174 17.3976 4.7486 16.8834 4.34414 16.3634C3.95123 15.8433 3.65077 15.3002 3.44276 14.7339C3.23475 14.1677 3.10185 13.5841 3.04407 12.9832C2.98629 12.3707 2.9574 11.7236 2.9574 11.0418C2.9574 10.0248 3.20008 9.05988 3.68544 8.14695C4.1708 7.23401 4.85261 6.44242 5.73088 5.77216C6.6207 5.09035 7.68386 4.55299 8.92037 4.16008C10.1569 3.75561 11.5321 3.55338 13.0459 3.55338C13.2308 3.55338 13.5082 3.57649 13.878 3.62272C14.2478 3.65739 14.6522 3.72094 15.0913 3.81339C15.542 3.90584 15.9985 4.03296 16.4608 4.19475C16.923 4.35653 17.3448 4.56454 17.7261 4.81878C17.8533 4.91123 17.9515 5.00368 18.0208 5.09612C18.1017 5.18857 18.1537 5.33303 18.1768 5.52948C18.2346 6.46553 18.2808 7.39002 18.3155 8.30295C18.3502 9.20433 18.3964 10.1635 18.4542 11.1804C18.4542 11.3769 18.4137 11.5098 18.3328 11.5791C18.252 11.6369 18.1479 11.6658 18.0208 11.6658C17.8937 11.6658 17.7955 11.6311 17.7261 11.5618C17.391 11.2267 17.0443 10.8973 16.6861 10.5737C16.3279 10.2502 15.9523 9.96704 15.5594 9.72436C15.1665 9.47012 14.7447 9.26789 14.294 9.11766C13.8548 8.96743 13.3753 8.89232 12.8552 8.89232C12.5432 8.89232 12.2312 8.92121 11.9192 8.97899C11.6072 9.02521 11.324 9.11766 11.0698 9.25634C10.8156 9.39501 10.6076 9.58569 10.4458 9.82836C10.2956 10.071 10.2204 10.3773 10.2204 10.7471C10.2204 11.14 10.2667 11.4809 10.3591 11.7698C10.4631 12.0587 10.7116 12.3303 11.1045 12.5845L15.2647 15.41C16.0274 15.9531 16.6457 16.4963 17.1195 17.0394C17.5933 17.571 17.9631 18.1026 18.2288 18.6341C18.4946 19.1657 18.6738 19.6915 18.7662 20.2116C18.8702 20.72 18.9222 21.2227 18.9222 21.7196C18.9222 22.5286 18.7893 23.2913 18.5235 24.0077C18.2577 24.7242 17.8937 25.3887 17.4315 26.0012C16.9692 26.6021 16.4261 27.1452 15.8021 27.6306C15.1896 28.1044 14.5309 28.5146 13.826 28.8613C13.121 29.1965 12.3872 29.4507 11.6245 29.624C10.8734 29.8089 10.1338 29.9014 9.40573 29.9014C8.83948 29.9014 8.27901 29.8898 7.72431 29.8667C7.18117 29.8552 6.64959 29.8089 6.12956 29.728C5.60954 29.6587 5.10684 29.5431 4.62149 29.3814C4.13613 29.2311 3.67388 29.0173 3.23475 28.74L2.94007 22.5517ZM31.5068 9.65502C32.6047 9.65502 33.5985 9.86303 34.4883 10.2791C35.3897 10.6835 36.1582 11.2151 36.7938 11.8738C37.4409 12.5209 37.9378 13.249 38.2845 14.0579C38.6312 14.8668 38.8045 15.6758 38.8045 16.4847C38.8045 17.2012 38.585 17.9234 38.1458 18.6515C37.7067 19.368 37.0885 20.0151 36.2911 20.5929C35.5053 21.1707 34.5577 21.6387 33.4483 21.997C32.3389 22.3552 31.1197 22.5343 29.7908 22.5343C29.0974 22.5343 28.3694 22.465 27.6066 22.3263C27.6529 22.8232 27.7973 23.2508 28.04 23.6091C28.2827 23.9673 28.5889 24.262 28.9587 24.4931C29.3285 24.7242 29.7445 24.8976 30.2068 25.0131C30.6806 25.1171 31.1659 25.1691 31.6629 25.1691C32.2175 25.1691 32.7491 25.1229 33.2576 25.0305C33.7776 24.9265 34.2745 24.7936 34.7483 24.6318C35.2221 24.47 35.6786 24.2909 36.1177 24.0944C36.5569 23.898 36.9729 23.7015 37.3658 23.5051C37.4698 23.4819 37.5565 23.4646 37.6258 23.4531C37.7067 23.4299 37.7818 23.4184 37.8512 23.4184C37.8512 23.4184 37.8454 23.5108 37.8338 23.6957C37.8338 23.8806 37.8338 24.1406 37.8338 24.4758C37.8338 24.8109 37.8281 25.2154 37.8165 25.6892C37.8165 26.163 37.8107 26.6888 37.7992 27.2666C37.8338 27.3244 37.8569 27.3821 37.8685 27.4399C37.8801 27.4977 37.8858 27.5439 37.8858 27.5786C37.8858 27.7173 37.7587 27.8675 37.5045 28.0293C37.2502 28.1911 36.9151 28.3586 36.4991 28.532C36.0946 28.7053 35.6266 28.8729 35.095 29.0347C34.575 29.1965 34.0434 29.3409 33.5003 29.468C32.9571 29.6067 32.4313 29.7107 31.9229 29.78C31.4144 29.8609 30.9695 29.9014 30.5881 29.9014C29.3401 29.9014 28.1267 29.6818 26.9479 29.2427C25.7808 28.8151 24.7407 28.1968 23.8278 27.3879C22.9264 26.579 22.2042 25.5967 21.661 24.4411C21.1179 23.2855 20.8463 21.9854 20.8463 20.5409C20.8463 19.0271 21.1063 17.6114 21.6263 16.294C22.1464 14.9651 22.8744 13.8095 23.8105 12.8272C24.7581 11.8449 25.8848 11.0706 27.1906 10.5044C28.4965 9.93815 29.9352 9.65502 31.5068 9.65502ZM31.2988 14.2659C30.825 14.2659 30.3859 14.3699 29.9814 14.5779C29.5885 14.7744 29.2245 15.0633 28.8894 15.4446C28.5658 15.8144 28.2827 16.2651 28.04 16.7967C27.7973 17.3167 27.6009 17.8945 27.4506 18.5301C28.6409 18.3221 29.629 18.1026 30.4148 17.8714C31.2006 17.6403 31.8304 17.4092 32.3042 17.1781C32.778 16.9354 33.1132 16.6985 33.3096 16.4674C33.5061 16.2247 33.6043 15.9936 33.6043 15.774C33.6043 15.566 33.5234 15.3695 33.3616 15.1846C33.2114 14.9997 33.0207 14.838 32.7896 14.6993C32.5585 14.5606 32.3042 14.4566 32.0269 14.3873C31.7611 14.3064 31.5184 14.2659 31.2988 14.2659ZM66.1926 29.624C66.0655 29.6587 65.8979 29.7107 65.6899 29.78C65.4819 29.8609 65.2797 29.9014 65.0832 29.9014C64.9214 29.9014 64.777 29.8609 64.6499 29.78C64.5343 29.6991 64.4765 29.5605 64.4765 29.364V29.26C64.5574 28.4164 64.6267 27.7346 64.6845 27.2146C64.7423 26.683 64.7885 26.2554 64.8232 25.9318C64.8579 25.6083 64.8868 25.3656 64.9099 25.2038C64.933 25.0305 64.9561 24.8745 64.9792 24.7358C65.0023 24.5856 65.0197 24.4238 65.0312 24.2504C65.0543 24.0771 65.0832 23.8344 65.1179 23.5224C65.1525 23.1988 65.193 22.777 65.2392 22.257C65.297 21.7254 65.3663 21.032 65.4472 20.1769C65.4935 19.7146 65.5397 19.2582 65.5859 18.8075C65.6437 18.3452 65.6726 17.9234 65.6726 17.5421C65.6726 17.0567 65.6437 16.6176 65.5859 16.2247C65.5397 15.8202 65.4472 15.4793 65.3086 15.202C65.1814 14.9131 65.0023 14.6877 64.7712 14.5259C64.5401 14.3641 64.2454 14.2833 63.8872 14.2833C63.6676 14.2833 63.3787 14.3295 63.0204 14.4219C62.6738 14.5144 62.3213 14.6819 61.9631 14.9246C61.6048 15.1557 61.2812 15.4678 60.9923 15.8607C60.7034 16.242 60.5185 16.7274 60.4376 17.3167V17.3861C60.299 18.7035 60.1719 19.8475 60.0563 20.8183C59.9523 21.7774 59.8598 22.6037 59.7789 23.297C59.698 23.9904 59.6287 24.5682 59.5709 25.0305C59.5247 25.4927 59.4843 25.8856 59.4496 26.2092C59.4149 26.5212 59.386 26.7812 59.3629 26.9892C59.3514 27.1972 59.3456 27.3937 59.3456 27.5786C59.3456 27.671 59.3456 27.7519 59.3456 27.8213C59.3571 27.8791 59.3629 27.9311 59.3629 27.9773C59.3629 28.0697 59.3167 28.1506 59.2242 28.22C59.1434 28.2777 58.9527 28.3529 58.6522 28.4453L54.5787 29.624C54.4516 29.6587 54.284 29.7107 54.076 29.78C53.868 29.8609 53.6657 29.9014 53.4693 29.9014C53.3075 29.9014 53.1631 29.8609 53.0359 29.78C52.9204 29.6991 52.8626 29.5605 52.8626 29.364V29.26C52.9435 28.4164 53.007 27.7346 53.0533 27.2146C53.1111 26.683 53.1573 26.2554 53.1919 25.9318C53.2382 25.6083 53.2728 25.3656 53.2959 25.2038C53.3191 25.0305 53.3364 24.8745 53.348 24.7358C53.3711 24.5856 53.3942 24.4238 53.4173 24.2504C53.4404 24.0771 53.4635 23.8344 53.4866 23.5224C53.5213 23.1988 53.5617 22.777 53.608 22.257C53.6657 21.7254 53.7351 21.032 53.816 20.1769C53.8622 19.7146 53.9084 19.2582 53.9546 18.8075C54.0124 18.3452 54.0413 17.9234 54.0413 17.5421C54.0413 17.0567 54.0182 16.6176 53.972 16.2247C53.9258 15.8202 53.8391 15.4793 53.712 15.202C53.5964 14.9131 53.4346 14.6877 53.2266 14.5259C53.0186 14.3641 52.7528 14.2833 52.4292 14.2833C52.1981 14.2833 51.8803 14.341 51.4759 14.4566C51.0829 14.5722 50.6843 14.7628 50.2798 15.0286C49.8869 15.2944 49.5344 15.6469 49.2224 16.086C48.9219 16.5136 48.7486 17.0452 48.7024 17.6808C48.6099 18.5359 48.5348 19.2408 48.477 19.7955C48.4193 20.3387 48.373 20.7894 48.3384 21.1476C48.3037 21.4943 48.2748 21.7774 48.2517 21.997C48.2401 22.205 48.2286 22.4014 48.217 22.5863C48.2055 22.6326 48.1881 22.7655 48.165 22.985C48.1419 23.193 48.113 23.4473 48.0784 23.7477C48.0552 24.0366 48.0263 24.3544 47.9917 24.7011C47.9686 25.0362 47.9455 25.354 47.9223 25.6545C47.8992 25.9434 47.8761 26.1976 47.853 26.4172C47.8415 26.6252 47.8357 26.7523 47.8357 26.7986V27.1106C47.8357 27.2261 47.8299 27.3244 47.8183 27.4053C47.8068 27.4861 47.7721 27.5613 47.7143 27.6306C47.6566 27.6999 47.5699 27.7635 47.4543 27.8213C47.3503 27.8791 47.2001 27.9426 47.0036 28.012L42.4621 29.624C42.3349 29.6703 42.1674 29.728 41.9594 29.7974C41.7514 29.8667 41.5491 29.9014 41.3527 29.9014C41.1909 29.9014 41.0464 29.8609 40.9193 29.78C40.8038 29.6991 40.746 29.5605 40.746 29.364L42.3061 11.6831C42.3407 11.3018 42.3812 11.0418 42.4274 10.9031C42.4852 10.7529 42.6181 10.6546 42.8261 10.6084C43.8777 10.4004 44.9524 10.1924 46.0502 9.98437C47.1481 9.76481 48.2228 9.48746 49.2744 9.15233C49.3669 9.15233 49.4189 9.16966 49.4304 9.20433C49.4535 9.22744 49.4651 9.26789 49.4651 9.32567L49.2397 11.8565C49.6673 11.6369 50.1469 11.4 50.6785 11.1458C51.2101 10.88 51.7648 10.6373 52.3426 10.4177C52.9319 10.1982 53.5271 10.019 54.128 9.88037C54.7405 9.73014 55.3356 9.65502 55.9134 9.65502C56.7108 9.65502 57.4446 9.83992 58.1149 10.2097C58.7967 10.568 59.3571 11.1689 59.7963 12.0125C60.3163 11.6773 60.8652 11.3653 61.443 11.0764C62.0324 10.7875 62.6275 10.5391 63.2285 10.3311C63.8409 10.123 64.4534 9.96126 65.0659 9.8457C65.6784 9.73014 66.2735 9.67236 66.8513 9.67236C67.5793 9.67236 68.2669 9.77636 68.9141 9.98437C69.5612 10.1924 70.1217 10.5333 70.5955 11.0071C71.0808 11.4809 71.4622 12.0991 71.7395 12.8619C72.0169 13.613 72.1556 14.5317 72.1556 15.618C72.1556 15.8953 72.1498 16.1842 72.1382 16.4847C72.1267 16.7736 72.1036 17.0741 72.0689 17.3861L71.2715 24.8051C71.2137 25.2905 71.1791 25.7412 71.1675 26.1572C71.156 26.5617 71.1502 27.0355 71.1502 27.5786C71.1502 27.671 71.1502 27.7519 71.1502 27.8213C71.1617 27.8791 71.1675 27.9311 71.1675 27.9773C71.1675 28.0813 71.1213 28.1622 71.0288 28.22C70.948 28.2777 70.7573 28.3529 70.4568 28.4453L66.1926 29.624ZM84.1162 15.6353C83.9544 16.8487 83.7984 18.0621 83.6482 19.2755C83.5095 20.4773 83.4228 21.6041 83.3881 22.6557C83.3881 23.1064 83.4228 23.4819 83.4921 23.7824C83.5615 24.0829 83.6597 24.3198 83.7868 24.4931C83.9255 24.6664 84.0873 24.7936 84.2722 24.8745C84.4571 24.9438 84.6651 24.9785 84.8962 24.9785C85.266 24.9785 85.6705 24.9265 86.1096 24.8225C86.5487 24.7069 86.9879 24.5624 87.427 24.3891C87.5657 24.3313 87.6812 24.2909 87.7737 24.2678C87.8777 24.2331 87.9644 24.2158 88.0337 24.2158C88.1493 24.2158 88.2244 24.2678 88.2591 24.3718C88.3053 24.4758 88.3457 24.6607 88.3804 24.9265C88.4266 25.1807 88.4902 25.5274 88.5711 25.9665C88.652 26.4056 88.7849 26.9603 88.9698 27.6306C88.9813 27.6884 88.9871 27.7404 88.9871 27.7866C88.9986 27.8213 89.0044 27.8559 89.0044 27.8906C89.0044 28.0524 88.9409 28.168 88.8137 28.2373C88.6982 28.3066 88.5017 28.3875 88.2244 28.48C87.7506 28.6418 87.2479 28.8093 86.7163 28.9827C86.1963 29.1445 85.6763 29.2947 85.1562 29.4334C84.6478 29.572 84.1566 29.6818 83.6828 29.7627C83.209 29.8552 82.793 29.9014 82.4348 29.9014C80.5049 29.9014 79.095 29.4218 78.2052 28.4626C77.3269 27.5035 76.8878 26.0416 76.8878 24.0771C76.8878 23.742 76.8994 23.4011 76.9225 23.0544C76.9456 22.6961 76.9745 22.3263 77.0092 21.945C77.1247 20.7894 77.2229 19.6973 77.3038 18.6688C77.3963 17.6288 77.4887 16.6349 77.5812 15.6873H75.7611C75.1371 15.6873 74.6864 15.6642 74.409 15.618C74.1317 15.5602 73.993 15.4504 73.993 15.2886C73.993 15.2424 74.0508 15.1211 74.1663 14.9246C74.2819 14.7166 74.4264 14.4739 74.5997 14.1966C74.7846 13.9077 74.981 13.6014 75.1891 13.2779C75.3971 12.9543 75.5935 12.6538 75.7784 12.3765C75.9749 12.0876 76.1424 11.8391 76.2811 11.6311C76.4198 11.4231 76.5065 11.296 76.5411 11.2498H77.7719C77.8759 10.3715 77.9568 9.63769 78.0145 9.04832C78.0839 8.44741 78.1359 7.95049 78.1705 7.55758C78.2168 7.16467 78.2572 6.86421 78.2919 6.6562C78.3266 6.43664 78.3612 6.27485 78.3959 6.17085C78.4421 6.06684 78.4941 6.00328 78.5519 5.98017C78.6212 5.9455 78.7079 5.91661 78.8119 5.8935C79.3319 5.78949 79.8346 5.69704 80.32 5.61615C80.8053 5.5237 81.2907 5.43125 81.7761 5.3388C82.2614 5.24635 82.7526 5.14235 83.2495 5.02679C83.7579 4.89967 84.2837 4.75522 84.8269 4.59343C84.8615 4.59343 84.8847 4.59343 84.8962 4.59343C84.9078 4.58188 84.9309 4.5761 84.9656 4.5761C85.1042 4.5761 85.1736 4.62232 85.1736 4.71477V4.74944C85.1158 5.38503 85.0233 6.26907 84.8962 7.40157C84.7807 8.53408 84.6478 9.81681 84.4975 11.2498H89.1431C89.2355 11.2498 89.3222 11.2844 89.4031 11.3538C89.4956 11.4116 89.5418 11.5156 89.5418 11.6658C89.5418 11.7236 89.4724 11.9316 89.3338 12.2898C89.1951 12.6481 88.9986 13.1161 88.7444 13.6939L88.1204 15.098C88.0395 15.2713 87.9528 15.3984 87.8604 15.4793C87.7795 15.5602 87.6061 15.6122 87.3403 15.6353H84.1162ZM108.488 25.5158C108.477 25.562 108.471 25.6083 108.471 25.6545C108.471 25.6892 108.471 25.7238 108.471 25.7585C108.471 26.0474 108.517 26.2901 108.609 26.4865C108.702 26.6714 108.8 26.8274 108.904 26.9546C109.02 27.0701 109.124 27.1684 109.216 27.2492C109.309 27.3186 109.355 27.3821 109.355 27.4399C109.355 27.6017 109.181 27.7519 108.835 27.8906L104.172 29.884C104.16 29.8956 104.12 29.9014 104.051 29.9014C103.958 29.9014 103.866 29.8205 103.773 29.6587C103.681 29.4969 103.588 29.2889 103.496 29.0347C103.415 28.792 103.334 28.532 103.253 28.2546C103.184 27.9657 103.12 27.6999 103.062 27.4573C102.334 28.3009 101.549 28.9191 100.705 29.312C99.8614 29.7049 99.0236 29.9014 98.1916 29.9014C97.2208 29.9014 96.2732 29.6876 95.3487 29.26C94.4243 28.8324 93.6038 28.2257 92.8873 27.4399C92.1708 26.6425 91.593 25.6834 91.1539 24.5624C90.7263 23.4415 90.5125 22.1819 90.5125 20.7836C90.5125 19.1311 90.7494 17.623 91.2232 16.2594C91.7086 14.8957 92.3615 13.7228 93.182 12.7405C94.0025 11.7582 94.9558 11.0013 96.0421 10.4697C97.1399 9.92659 98.3013 9.65502 99.5263 9.65502C100.393 9.65502 101.213 9.83414 101.988 10.1924C102.762 10.5391 103.496 10.9898 104.189 11.5445C104.259 11.1978 104.299 10.9204 104.311 10.7124C104.322 10.5044 104.345 10.3426 104.38 10.2271C104.426 10.1115 104.507 10.0364 104.623 10.0017C104.738 9.95548 104.929 9.92081 105.195 9.8977C106.027 9.78214 106.853 9.67813 107.673 9.58569C108.505 9.48168 109.372 9.40656 110.273 9.36034L108.488 25.5158ZM103.305 18.9808C103.421 18.3221 103.496 17.7039 103.53 17.1261C103.577 16.5367 103.611 15.9993 103.634 15.514C103.45 15.3753 103.247 15.2309 103.028 15.0806C102.82 14.9304 102.589 14.7917 102.334 14.6646C102.092 14.5259 101.832 14.4162 101.554 14.3353C101.289 14.2544 101.005 14.2139 100.705 14.2139C100.081 14.2139 99.5552 14.4162 99.1276 14.8206C98.7116 15.2251 98.3707 15.722 98.1049 16.3114C97.8506 16.9007 97.6657 17.5248 97.5502 18.1835C97.4462 18.8422 97.3942 19.4257 97.3942 19.9342C97.3942 21.7601 97.6311 23.1006 98.1049 23.9557C98.5902 24.7993 99.2605 25.2211 100.116 25.2211C100.462 25.2211 100.849 25.1229 101.277 24.9265C101.705 24.73 102.138 24.4584 102.577 24.1118L103.305 18.9808Z" fill="#FF9900"/>
<path d="M112.51 24.2158C112.51 24.2042 112.504 24.1984 112.492 24.1984C112.492 24.1869 112.492 24.1753 112.492 24.1638C112.492 24.0135 112.573 23.9384 112.735 23.9384C112.839 23.9384 112.931 23.9789 113.012 24.0598C113.475 24.4989 114 24.8571 114.59 25.1345C115.191 25.4118 115.838 25.5505 116.531 25.5505C116.716 25.5505 116.93 25.5332 117.173 25.4985C117.415 25.4523 117.646 25.3829 117.866 25.2905C118.085 25.198 118.265 25.0767 118.403 24.9265C118.553 24.7647 118.629 24.5682 118.629 24.3371C118.629 24.0829 118.565 23.8517 118.438 23.6437C118.311 23.4242 118.143 23.245 117.935 23.1064C117.82 23.0255 117.617 22.8868 117.329 22.6903C117.04 22.4823 116.728 22.2628 116.392 22.0316C116.069 21.8005 115.757 21.581 115.456 21.3729C115.168 21.1649 114.965 21.0147 114.85 20.9223C114.33 20.5293 113.914 20.1307 113.602 19.7262C113.301 19.3217 113.07 18.9057 112.908 18.4781C112.747 18.039 112.643 17.5825 112.596 17.1087C112.55 16.6349 112.527 16.1322 112.527 15.6007C112.527 14.7917 112.741 14.029 113.168 13.3125C113.596 12.5961 114.156 11.9662 114.85 11.4231C115.555 10.88 116.352 10.4524 117.242 10.1404C118.132 9.81681 119.039 9.65502 119.963 9.65502C120.726 9.65502 121.477 9.77058 122.217 10.0017C122.956 10.2328 123.644 10.6257 124.28 11.1804C124.337 11.9085 124.378 12.6249 124.401 13.3299C124.424 14.0348 124.459 14.7744 124.505 15.5487C124.505 15.6989 124.47 15.8029 124.401 15.8607C124.332 15.9069 124.251 15.93 124.158 15.93C124.077 15.93 124.008 15.9011 123.95 15.8433C123.684 15.5891 123.413 15.3406 123.135 15.098C122.858 14.8437 122.563 14.6242 122.251 14.4393C121.951 14.2428 121.627 14.0868 121.281 13.9712C120.934 13.8441 120.564 13.7806 120.171 13.7806C119.929 13.7806 119.686 13.8037 119.443 13.8499C119.201 13.8846 118.981 13.9597 118.785 14.0752C118.588 14.1793 118.426 14.3237 118.299 14.5086C118.184 14.6935 118.126 14.9304 118.126 15.2193C118.126 15.5544 118.166 15.8433 118.247 16.086C118.328 16.3287 118.519 16.5656 118.819 16.7967L122.043 18.9808C122.633 19.3853 123.107 19.784 123.465 20.1769C123.835 20.5582 124.124 20.9396 124.332 21.3209C124.54 21.7023 124.678 22.0837 124.748 22.465C124.828 22.8348 124.869 23.2046 124.869 23.5744C124.869 24.6144 124.626 25.5332 124.141 26.3305C123.667 27.1163 123.049 27.775 122.286 28.3066C121.523 28.8267 120.657 29.2196 119.686 29.4854C118.727 29.7627 117.762 29.9014 116.791 29.9014C116.052 29.9014 115.335 29.8205 114.642 29.6587C113.96 29.5085 113.324 29.2716 112.735 28.948L112.51 24.2158ZM136.899 29.9014C135.269 29.9014 133.836 29.6356 132.6 29.104C131.375 28.5724 130.347 27.8675 129.514 26.9892C128.682 26.0994 128.058 25.0825 127.642 23.9384C127.226 22.7828 127.018 21.5867 127.018 20.3502C127.018 19.1137 127.221 17.9408 127.625 16.8314C128.03 15.7104 128.596 14.7108 129.324 13.8326C130.052 12.9427 130.924 12.2032 131.941 11.6138C132.958 11.0129 134.079 10.6084 135.304 10.4004C135.489 10.3888 135.581 10.3484 135.581 10.2791C135.581 10.1519 135.564 10.0364 135.529 9.93237C135.506 9.81681 135.495 9.71858 135.495 9.63769C135.495 9.51057 135.518 9.4239 135.564 9.37767C135.61 9.33145 135.662 9.30834 135.72 9.30834C137.927 9.30834 139.805 9.56257 141.354 10.071C142.902 10.568 144.162 11.2498 145.133 12.1165C146.103 12.9832 146.808 14.0059 147.247 15.1846C147.686 16.3634 147.906 17.6288 147.906 18.9808C147.906 20.7027 147.617 22.2397 147.039 23.5917C146.462 24.9438 145.67 26.0879 144.665 27.0239C143.671 27.9599 142.504 28.6707 141.163 29.156C139.834 29.6529 138.413 29.9014 136.899 29.9014ZM133.692 20.1596C133.692 20.7836 133.756 21.4018 133.883 22.0143C134.021 22.6268 134.241 23.1815 134.541 23.6784C134.853 24.1753 135.258 24.5798 135.755 24.8918C136.252 25.1923 136.87 25.3425 137.61 25.3425C138.141 25.3194 138.603 25.2038 138.996 24.9958C139.401 24.7762 139.747 24.4989 140.036 24.1638C140.325 23.8171 140.562 23.4299 140.747 23.0024C140.943 22.5748 141.094 22.1357 141.198 21.685C141.313 21.2227 141.394 20.772 141.44 20.3329C141.487 19.8938 141.51 19.4951 141.51 19.1368C141.51 18.5359 141.417 17.9466 141.232 17.3687C141.059 16.7909 140.799 16.2825 140.452 15.8433C140.106 15.4042 139.672 15.0517 139.152 14.7859C138.644 14.5086 138.054 14.3699 137.384 14.3699C136.691 14.3699 136.107 14.5779 135.633 14.994C135.16 15.3984 134.778 15.9011 134.489 16.502C134.212 17.103 134.01 17.7385 133.883 18.4088C133.756 19.0675 133.692 19.6511 133.692 20.1596ZM152.084 29.26C152.095 29.1329 152.118 28.8613 152.153 28.4453C152.199 28.0177 152.251 27.4804 152.309 26.8332C152.367 26.1861 152.43 25.4465 152.5 24.6144C152.581 23.7708 152.667 22.8695 152.76 21.9103C152.852 20.9396 152.945 19.9284 153.037 18.8768C153.141 17.8252 153.245 16.762 153.349 15.6873H151.044C150.42 15.6873 149.969 15.6642 149.691 15.618C149.414 15.5602 149.275 15.4504 149.275 15.2886C149.275 15.2424 149.333 15.1211 149.449 14.9246C149.564 14.7166 149.709 14.4739 149.882 14.1966C150.067 13.9077 150.264 13.6014 150.472 13.2779C150.68 12.9543 150.876 12.6538 151.061 12.3765C151.257 12.0876 151.425 11.8391 151.564 11.6311C151.702 11.4231 151.789 11.296 151.824 11.2498H153.938L154.285 8.49363C154.447 7.03756 154.736 5.81261 155.152 4.81878C155.579 3.82495 156.105 3.0218 156.729 2.40932C157.365 1.79685 158.087 1.35771 158.896 1.09192C159.705 0.826131 160.572 0.693235 161.496 0.693235C162.421 0.693235 163.38 0.808797 164.374 1.03992C165.379 1.25949 166.39 1.56572 167.407 1.95863C167.627 2.05108 167.788 2.13197 167.892 2.20131C168.008 2.25909 168.066 2.33999 168.066 2.44399C168.066 2.53644 168.025 2.65778 167.944 2.80801C167.575 3.52449 167.297 4.1023 167.112 4.54143C166.939 4.98056 166.8 5.32725 166.696 5.58148C166.592 5.83572 166.506 6.00906 166.436 6.10151C166.367 6.1824 166.263 6.22285 166.124 6.22285C166.055 6.22285 165.98 6.20551 165.899 6.17085C165.83 6.13618 165.743 6.09573 165.639 6.04951C165.234 5.89928 164.824 5.76638 164.408 5.65082C164.004 5.5237 163.617 5.46014 163.247 5.46014C162.727 5.46014 162.276 5.62193 161.895 5.9455C161.525 6.26907 161.23 6.88155 161.011 7.78293C160.884 8.30295 160.78 8.86343 160.699 9.46435C160.618 10.0653 160.548 10.6604 160.491 11.2498H165.015C165.107 11.2498 165.194 11.2844 165.275 11.3538C165.367 11.4116 165.414 11.5156 165.414 11.6658C165.414 11.7236 165.344 11.9316 165.206 12.2898C165.067 12.6481 164.87 13.1161 164.616 13.6939L163.992 15.098C163.911 15.2713 163.825 15.3984 163.732 15.4793C163.651 15.5602 163.478 15.6122 163.212 15.6353H160.213C160.086 16.8372 159.965 18.0274 159.849 19.2062C159.734 20.3849 159.624 21.4943 159.52 22.5343C159.416 23.5628 159.324 24.4815 159.243 25.2905C159.162 26.0879 159.098 26.7061 159.052 27.1452C159.04 27.1799 159.035 27.2435 159.035 27.3359C159.035 27.3821 159.035 27.4226 159.035 27.4573C159.046 27.4919 159.052 27.5208 159.052 27.5439C159.052 27.6479 159.012 27.7346 158.931 27.8039C158.861 27.8617 158.671 27.9311 158.359 28.012L153.8 29.624C153.673 29.6703 153.505 29.728 153.297 29.7974C153.089 29.8667 152.887 29.9014 152.69 29.9014C152.494 29.9014 152.344 29.8552 152.24 29.7627C152.136 29.6703 152.084 29.5027 152.084 29.26ZM175.259 15.6353C175.098 16.8487 174.942 18.0621 174.791 19.2755C174.653 20.4773 174.566 21.6041 174.531 22.6557C174.531 23.1064 174.566 23.4819 174.635 23.7824C174.705 24.0829 174.803 24.3198 174.93 24.4931C175.069 24.6664 175.231 24.7936 175.415 24.8745C175.6 24.9438 175.808 24.9785 176.039 24.9785C176.409 24.9785 176.814 24.9265 177.253 24.8225C177.692 24.7069 178.131 24.5624 178.57 24.3891C178.709 24.3313 178.825 24.2909 178.917 24.2678C179.021 24.2331 179.108 24.2158 179.177 24.2158C179.293 24.2158 179.368 24.2678 179.402 24.3718C179.449 24.4758 179.489 24.6607 179.524 24.9265C179.57 25.1807 179.633 25.5274 179.714 25.9665C179.795 26.4056 179.928 26.9603 180.113 27.6306C180.125 27.6884 180.13 27.7404 180.13 27.7866C180.142 27.8213 180.148 27.8559 180.148 27.8906C180.148 28.0524 180.084 28.168 179.957 28.2373C179.841 28.3066 179.645 28.3875 179.368 28.48C178.894 28.6418 178.391 28.8093 177.86 28.9827C177.34 29.1445 176.82 29.2947 176.299 29.4334C175.791 29.572 175.3 29.6818 174.826 29.7627C174.352 29.8552 173.936 29.9014 173.578 29.9014C171.648 29.9014 170.238 29.4218 169.348 28.4626C168.47 27.5035 168.031 26.0416 168.031 24.0771C168.031 23.742 168.043 23.4011 168.066 23.0544C168.089 22.6961 168.118 22.3263 168.152 21.945C168.268 20.7894 168.366 19.6973 168.447 18.6688C168.54 17.6288 168.632 16.6349 168.724 15.6873H166.904C166.28 15.6873 165.83 15.6642 165.552 15.618C165.275 15.5602 165.136 15.4504 165.136 15.2886C165.136 15.2424 165.194 15.1211 165.31 14.9246C165.425 14.7166 165.57 14.4739 165.743 14.1966C165.928 13.9077 166.124 13.6014 166.332 13.2779C166.54 12.9543 166.737 12.6538 166.922 12.3765C167.118 12.0876 167.286 11.8391 167.424 11.6311C167.563 11.4231 167.65 11.296 167.684 11.2498H168.915C169.019 10.3715 169.1 9.63769 169.158 9.04832C169.227 8.44741 169.279 7.95049 169.314 7.55758C169.36 7.16467 169.4 6.86421 169.435 6.6562C169.47 6.43664 169.504 6.27485 169.539 6.17085C169.585 6.06684 169.637 6.00328 169.695 5.98017C169.764 5.9455 169.851 5.91661 169.955 5.8935C170.475 5.78949 170.978 5.69704 171.463 5.61615C171.949 5.5237 172.434 5.43125 172.919 5.3388C173.405 5.24635 173.896 5.14235 174.393 5.02679C174.901 4.89967 175.427 4.75522 175.97 4.59343C176.005 4.59343 176.028 4.59343 176.039 4.59343C176.051 4.58188 176.074 4.5761 176.109 4.5761C176.247 4.5761 176.317 4.62232 176.317 4.71477V4.74944C176.259 5.38503 176.167 6.26907 176.039 7.40157C175.924 8.53408 175.791 9.81681 175.641 11.2498H180.286C180.379 11.2498 180.465 11.2844 180.546 11.3538C180.639 11.4116 180.685 11.5156 180.685 11.6658C180.685 11.7236 180.616 11.9316 180.477 12.2898C180.338 12.6481 180.142 13.1161 179.888 13.6939L179.264 15.098C179.183 15.2713 179.096 15.3984 179.004 15.4793C178.923 15.5602 178.749 15.6122 178.484 15.6353H175.259ZM189.852 24.6959C189.844 24.7361 189.832 24.7803 189.816 24.8285C189.808 24.8687 189.78 24.8968 189.732 24.9129C189.667 24.9451 189.563 24.9893 189.418 25.0455C189.282 25.0937 189.125 25.15 188.948 25.2143C188.771 25.2706 188.586 25.3309 188.393 25.3952C188.209 25.4595 188.036 25.5197 187.875 25.576C187.714 25.6242 187.582 25.6644 187.477 25.6966C187.373 25.7287 187.316 25.7448 187.308 25.7448C187.244 25.7448 187.184 25.7287 187.128 25.6966C187.079 25.6644 187.055 25.6041 187.055 25.5157C187.055 25.371 187.063 25.138 187.079 24.8165C187.103 24.495 187.128 24.1212 187.152 23.6952C187.184 23.2612 187.22 22.787 187.26 22.2726C187.308 21.7582 187.353 21.2357 187.393 20.7052C187.441 20.1667 187.485 19.6363 187.525 19.1138C187.574 18.5833 187.618 18.085 187.658 17.6188C187.658 17.6108 187.646 17.6068 187.622 17.6068C187.541 17.6068 187.373 17.6309 187.115 17.6791C186.858 17.7273 186.573 17.7796 186.259 17.8358C186.155 17.8358 186.103 17.8077 186.103 17.7514C186.103 17.7354 186.107 17.7233 186.115 17.7153L187.248 15.738C187.779 15.6255 188.377 15.517 189.044 15.4125C189.712 15.3 190.471 15.2437 191.323 15.2437C191.805 15.2437 192.276 15.292 192.734 15.3884C193.2 15.4849 193.61 15.6416 193.963 15.8586C194.317 16.0756 194.602 16.365 194.819 16.7267C195.036 17.0803 195.145 17.5184 195.145 18.0408C195.145 18.3221 195.093 18.5793 194.988 18.8124C194.892 19.0375 194.763 19.2464 194.602 19.4393C194.45 19.6242 194.277 19.789 194.084 19.9336C193.899 20.0783 193.722 20.2029 193.554 20.3074C193.385 20.4119 193.236 20.4963 193.107 20.5606C192.979 20.6249 192.894 20.6691 192.854 20.6932C192.854 20.7012 192.862 20.7213 192.878 20.7535C192.894 20.7776 192.927 20.8298 192.975 20.9102C193.023 20.9906 193.091 21.1071 193.18 21.2598C193.276 21.4126 193.401 21.6215 193.554 21.8868C193.706 22.144 193.895 22.4655 194.12 22.8513C194.345 23.2371 194.619 23.7033 194.94 24.2498C195.02 24.3141 195.109 24.3543 195.205 24.3704C195.31 24.3864 195.406 24.3985 195.495 24.4065C195.583 24.4065 195.659 24.4106 195.724 24.4186C195.788 24.4266 195.82 24.4548 195.82 24.503C195.82 24.5432 195.78 24.5874 195.7 24.6356C195.627 24.6838 195.539 24.7361 195.434 24.7923C195.33 24.8406 195.225 24.8888 195.121 24.937C195.016 24.9852 194.936 25.0214 194.88 25.0455C194.767 25.0937 194.651 25.146 194.53 25.2023C194.418 25.2505 194.289 25.3067 194.144 25.371C194.008 25.4353 193.851 25.5117 193.674 25.6001C193.505 25.6805 193.312 25.7769 193.095 25.8895C193.039 25.9297 192.987 25.9538 192.939 25.9618C192.89 25.9698 192.846 25.9739 192.806 25.9739C192.718 25.9739 192.641 25.9538 192.577 25.9136C192.521 25.8734 192.473 25.8292 192.432 25.781C192.392 25.7247 192.36 25.6684 192.336 25.6122C192.312 25.5559 192.292 25.5077 192.276 25.4675L190.19 21.0669L189.852 24.6959ZM190.274 20.2109C190.515 20.2109 190.765 20.1507 191.022 20.0301C191.279 19.9015 191.512 19.7488 191.721 19.572C191.93 19.3871 192.099 19.1902 192.227 18.9812C192.364 18.7722 192.432 18.5793 192.432 18.4025C192.432 17.5987 192.026 17.1969 191.215 17.1969C191.126 17.1969 191.042 17.2009 190.961 17.2089C190.889 17.2169 190.821 17.225 190.756 17.233L190.552 17.2692L190.274 20.2109ZM189.961 27.7582C190.676 27.7582 191.363 27.6778 192.022 27.5171C192.69 27.3483 193.308 27.1112 193.879 26.8057C194.458 26.5003 194.984 26.1266 195.458 25.6845C195.933 25.2424 196.339 24.7441 196.676 24.1895C197.014 23.6269 197.275 23.016 197.46 22.357C197.645 21.6898 197.737 20.9785 197.737 20.223C197.737 19.3469 197.584 18.5231 197.279 17.7514C196.982 16.9798 196.56 16.3087 196.013 15.738C195.475 15.1674 194.828 14.7173 194.072 14.3877C193.316 14.0582 192.489 13.8934 191.588 13.8934C190.552 13.8934 189.567 14.0662 188.635 14.4118C187.702 14.7575 186.886 15.2477 186.187 15.8827C185.488 16.5177 184.929 17.2812 184.511 18.1734C184.101 19.0575 183.896 20.0462 183.896 21.1393C183.896 22.0234 184.033 22.8673 184.306 23.6711C184.588 24.4668 184.99 25.1701 185.512 25.781C186.034 26.3838 186.669 26.866 187.417 27.2277C188.164 27.5814 189.012 27.7582 189.961 27.7582ZM189.527 29.7595C188.297 29.7595 187.196 29.5265 186.223 29.0603C185.251 28.5941 184.423 27.9672 183.74 27.1795C183.057 26.3838 182.534 25.4635 182.172 24.4186C181.811 23.3737 181.63 22.2766 181.63 21.1272C181.63 19.7046 181.899 18.4145 182.438 17.2571C182.976 16.0997 183.704 15.1071 184.62 14.2792C185.536 13.4514 186.601 12.8124 187.815 12.3623C189.028 11.9122 190.31 11.6871 191.661 11.6871C192.842 11.6871 193.923 11.9041 194.904 12.3382C195.884 12.7641 196.728 13.3509 197.436 14.0984C198.143 14.8378 198.694 15.7099 199.087 16.7146C199.481 17.7193 199.678 18.7923 199.678 19.9336C199.678 20.9142 199.558 21.8426 199.316 22.7187C199.075 23.5867 198.734 24.3864 198.292 25.1179C197.85 25.8412 197.319 26.4923 196.7 27.071C196.089 27.6417 195.406 28.1279 194.651 28.5298C193.895 28.9236 193.083 29.2251 192.215 29.434C191.355 29.651 190.459 29.7595 189.527 29.7595Z" fill="white"/>
</svg>
